<svg id="BG" xmlns="http://www.w3.org/2000/svg" viewBox="0 0 1214 941"><defs><style>.cls-1{fill:#204056;}.cls-2{isolation:isolate;}.cls-3{fill:#39d1b4;}.cls-4{fill:#7a98a9;}.cls-5{fill:#53b1da;}.cls-6{fill:none;stroke:#50778f;stroke-miterlimit:10;}.cls-7{fill:#7b98a8;}.cls-8{fill:#fff;}</style></defs><title>htmlcss1-diagram_</title><rect class="cls-1" width="1214" height="941"/><g class="cls-2"><path class="cls-3" d="M386,424.7q-5.69,0-7.79,3.28t-2.11,11.38v2.79h14.44v6.78H376.13v53.21H367V448.93h-9.73l0.77-6,9-.77v-2.68q0.11-11.59,4.35-16.82t13.7-5.22a60.31,60.31,0,0,1,9,.82l-0.6,7.16A55.83,55.83,0,0,0,386,424.7Z"/><path class="cls-3" d="M452.09,472.12q0,13.95-7.44,22.61t-20.56,8.67q-12.63,0-20.1-8.75t-7.46-22.48q0-14,7.49-22.64t20.56-8.64q12.85,0,20.18,8.67T452.09,472.12Zm-46.1.16q0,10.66,4.73,17.09t13.81,6.43q9,0,13.54-6.4t4.57-17.23q0-11-4.51-17.31t-13.75-6.32q-9,0-13.67,6.45T406,472.28Z"/><path class="cls-3" d="M465,502.14v-60h7.66l1.15,8.59a26.74,26.74,0,0,1,8.89-7.14,25.07,25.07,0,0,1,11.51-2.71q10.39,0,15.37,5.82t5,17.91v37.52h-9.13q0-36.09-.05-38.66-0.22-7.66-3.09-11.21t-9.6-3.55a19.59,19.59,0,0,0-11.76,3.39,15.42,15.42,0,0,0-6.12,8.8,57.53,57.53,0,0,0-.55,8.42v32.81H465Z"/><path class="cls-3" d="M548.89,503.23q-8.86,0-12.58-4.32T532.38,485v-36h-8.91l0.38-6,8.48-.77,3.12-13.73,6-.22v13.95h16.68v6.78H541.45v34.4q0,6.84,2.08,9.63t7.11,2.79a71.33,71.33,0,0,0,7.82-.87l0.38,7.22A62.06,62.06,0,0,1,548.89,503.23Z"/><path class="cls-3" d="M565.46,475v-8h27.34v8H565.46Z"/><path class="cls-3" d="M623.21,503.4a45.82,45.82,0,0,1-11.29-1.31,28.46,28.46,0,0,1-8.39-3.39l1.15-7.71a38,38,0,0,0,17.94,4.87q13.34,0,13.73-9.41a7.65,7.65,0,0,0-2.84-6.29q-2.84-2.3-11.16-5.14l-4.54-1.59q-7.87-2.62-11.24-6.51a15.13,15.13,0,0,1,2.24-21.38q5.66-4.65,15.5-4.65a43,43,0,0,1,18.54,3.94l-2.68,7a41.74,41.74,0,0,0-15.86-3.5q-5.74,0-9,2.27a7.32,7.32,0,0,0-3.25,6.37,6.42,6.42,0,0,0,2.35,5.36q2.35,1.86,9.41,4.27,1.8,0.66,4.54,1.53,9.08,3,12.85,7T645,486q-0.11,8.31-6,12.88T623.21,503.4Z"/><path class="cls-3" d="M668.22,420.33v10.83H659V420.33h9.19Zm0,21.82v60H659v-60h9.19Z"/><path class="cls-3" d="M724,502.14H682.11v-6.89l30.68-45.88H682.93v-7.22H723v7.22l-30.62,45.55H724v7.22Z"/><path class="cls-3" d="M760.64,503.4q-13.07,0-20.59-8.31t-7.52-22.75q0-13.95,7.27-22.61t19.14-8.83q11.16,0,17.69,7.63t6.54,20.37q0,0.66,0,2.41t0,2.52H741.94q0.16,10.23,5.28,15.94T761,495.47a40.7,40.7,0,0,0,19.09-5l1.42,7.38A39.17,39.17,0,0,1,760.64,503.4Zm9.21-50.18q-4-4.78-11-4.79a14.64,14.64,0,0,0-11.43,4.95q-4.43,5-5.2,13.54h31.66Q773.88,458,769.86,453.22Z"/><path class="cls-4" d="M796,453.3V440.67h11.27V453.3H796Zm0,50.2V490.77h11.27v12.74H796Z"/></g><g class="cls-2"><path class="cls-5" d="M58.16,312a9.82,9.82,0,0,1-2.42-.28,6.11,6.11,0,0,1-1.8-.73l0.25-1.65a8.14,8.14,0,0,0,3.84,1q2.86,0,2.94-2a1.64,1.64,0,0,0-.61-1.35A8.67,8.67,0,0,0,58,305.9l-1-.34a5.4,5.4,0,0,1-2.41-1.39,3.24,3.24,0,0,1,.48-4.58,5.08,5.08,0,0,1,3.32-1,9.21,9.21,0,0,1,4,.84l-0.57,1.5a8.94,8.94,0,0,0-3.4-.75,3.33,3.33,0,0,0-1.93.49,1.57,1.57,0,0,0-.7,1.37,1.38,1.38,0,0,0,.5,1.15,7.58,7.58,0,0,0,2,.91l1,0.33A6.57,6.57,0,0,1,62,305.91a3.26,3.26,0,0,1,.81,2.33A3.36,3.36,0,0,1,61.55,311,5.36,5.36,0,0,1,58.16,312Z"/><path class="cls-5" d="M70.93,312a5.65,5.65,0,0,1-4.41-1.78,7,7,0,0,1-1.61-4.87,7.29,7.29,0,0,1,1.56-4.85,5.19,5.19,0,0,1,4.1-1.89,4.73,4.73,0,0,1,3.79,1.63,6.48,6.48,0,0,1,1.4,4.37q0,0.14,0,.52t0,0.54H66.92a5.07,5.07,0,0,0,1.13,3.42A3.76,3.76,0,0,0,71,310.28a8.72,8.72,0,0,0,4.09-1.08l0.3,1.58A8.39,8.39,0,0,1,70.93,312Zm2-10.75a2.92,2.92,0,0,0-2.36-1,3.14,3.14,0,0,0-2.45,1.06,4.87,4.87,0,0,0-1.11,2.9h6.79A4.45,4.45,0,0,0,72.91,301.23Z"/><path class="cls-5" d="M81.94,311.94a3.16,3.16,0,0,1-2.65-1,5.9,5.9,0,0,1-.78-3.5V293.86l1.95-.12v12.91q0,0.8,0,1.28a8.3,8.3,0,0,0,.09.94,2.45,2.45,0,0,0,.19.7,1.39,1.39,0,0,0,.34.43,1.16,1.16,0,0,0,.53.26,3.86,3.86,0,0,0,.77.06,14.53,14.53,0,0,0,1.48-.14L84,311.74A12.83,12.83,0,0,1,81.94,311.94Z"/><path class="cls-5" d="M90.58,312a5.65,5.65,0,0,1-4.41-1.78,7,7,0,0,1-1.61-4.87,7.29,7.29,0,0,1,1.56-4.85,5.19,5.19,0,0,1,4.1-1.89A4.73,4.73,0,0,1,94,300.22a6.48,6.48,0,0,1,1.4,4.37q0,0.14,0,.52t0,0.54H86.58a5.07,5.07,0,0,0,1.13,3.42,3.76,3.76,0,0,0,2.95,1.22,8.72,8.72,0,0,0,4.09-1.08l0.3,1.58A8.39,8.39,0,0,1,90.58,312Zm2-10.75a2.92,2.92,0,0,0-2.36-1,3.14,3.14,0,0,0-2.45,1.06,4.87,4.87,0,0,0-1.11,2.9h6.79A4.45,4.45,0,0,0,92.56,301.23Z"/><path class="cls-5" d="M103.57,312a5.57,5.57,0,0,1-4.44-1.84,7.08,7.08,0,0,1-1.6-4.82,7.21,7.21,0,0,1,1.63-4.87,5.58,5.58,0,0,1,4.45-1.87,7.52,7.52,0,0,1,1.93.25,4.34,4.34,0,0,1,1.47.64L106.48,301a6,6,0,0,0-2.89-.74,3.57,3.57,0,0,0-2.95,1.36,5.8,5.8,0,0,0-1.08,3.71,5.67,5.67,0,0,0,1.07,3.64,3.59,3.59,0,0,0,3,1.34,6.69,6.69,0,0,0,3.09-.82l0.25,1.56A5.6,5.6,0,0,1,103.57,312Z"/><path class="cls-5" d="M113.58,311.94a3.4,3.4,0,0,1-2.7-.93,4.72,4.72,0,0,1-.84-3v-7.72h-1.91l0.08-1.29,1.82-.16,0.67-2.94,1.29,0v3h3.57v1.45H112v7.37a3.57,3.57,0,0,0,.45,2.06,1.78,1.78,0,0,0,1.52.6,15.32,15.32,0,0,0,1.68-.19l0.08,1.55A13.3,13.3,0,0,1,113.58,311.94Z"/><path class="cls-5" d="M129,305.27a7.18,7.18,0,0,1-1.59,4.85A5.5,5.5,0,0,1,123,312a5.37,5.37,0,0,1-4.31-1.87,8.09,8.09,0,0,1,0-9.67,5.53,5.53,0,0,1,4.41-1.85,5.36,5.36,0,0,1,4.32,1.86A7.23,7.23,0,0,1,129,305.27Zm-9.88,0a6,6,0,0,0,1,3.66,3.45,3.45,0,0,0,3,1.38A3.33,3.33,0,0,0,126,309a7.52,7.52,0,0,0,0-7.4,3.84,3.84,0,0,0-5.88,0A6.16,6.16,0,0,0,119.1,305.31Z"/><path class="cls-5" d="M137.51,298.74a6,6,0,0,1,1,.07l-0.07,1.8a5.57,5.57,0,0,0-.94-0.09,3.41,3.41,0,0,0-2.67,1.14,4.08,4.08,0,0,0-1,2.83v7.22h-2q0-11.84,0-12.86h1.63l0.19,2.31a5.46,5.46,0,0,1,1.7-1.76A4,4,0,0,1,137.51,298.74Z"/></g><polyline class="cls-6" points="338.4 241.32 338.4 216.98 405.76 216.98 405.76 241.32"/><line class="cls-6" x1="371.8" y1="216.98" x2="371.8" y2="192.64"/><g class="cls-2"><path class="cls-7" d="M340.8,136.68a7.18,7.18,0,0,1-1.59,4.85,5.5,5.5,0,0,1-4.41,1.86,5.37,5.37,0,0,1-4.31-1.87,8.09,8.09,0,0,1,0-9.67,5.53,5.53,0,0,1,4.41-1.85,5.36,5.36,0,0,1,4.32,1.86A7.23,7.23,0,0,1,340.8,136.68Zm-9.88,0a6,6,0,0,0,1,3.66,3.45,3.45,0,0,0,3,1.38,3.33,3.33,0,0,0,2.9-1.37,7.52,7.52,0,0,0,0-7.4,3.84,3.84,0,0,0-5.88,0A6.16,6.16,0,0,0,330.93,136.71Z"/><path class="cls-7" d="M343.57,148.69V130.25h1.72l0.19,1.75a5.12,5.12,0,0,1,4.05-2,5,5,0,0,1,3,.88,5.14,5.14,0,0,1,1.8,2.38,9.69,9.69,0,0,1,.58,3.5,8.69,8.69,0,0,1-.63,3.42,5.36,5.36,0,0,1-1.86,2.36,4.85,4.85,0,0,1-2.87.86,5.05,5.05,0,0,1-2.33-.56,4.78,4.78,0,0,1-1.75-1.47q0.07,1.27.07,2.46v4.75Zm5.7-7a3.14,3.14,0,0,0,1.59-.4,3.18,3.18,0,0,0,1.14-1.11,5.6,5.6,0,0,0,.66-1.6,8,8,0,0,0,.22-1.94,6.48,6.48,0,0,0-.93-3.62,3,3,0,0,0-2.71-1.41q-3.73,0-3.73,4.82a7.21,7.21,0,0,0,.87,3.94A3.19,3.19,0,0,0,349.27,141.73Z"/><path class="cls-7" d="M363.08,143.38a5.65,5.65,0,0,1-4.41-1.78,7,7,0,0,1-1.61-4.87,7.29,7.29,0,0,1,1.56-4.85,5.19,5.19,0,0,1,4.1-1.89,4.73,4.73,0,0,1,3.79,1.63,6.48,6.48,0,0,1,1.4,4.37q0,0.14,0,.52t0,0.54h-8.82a5.07,5.07,0,0,0,1.13,3.42,3.76,3.76,0,0,0,2.95,1.22,8.72,8.72,0,0,0,4.09-1.08l0.3,1.58A8.39,8.39,0,0,1,363.08,143.38Zm2-10.75a2.92,2.92,0,0,0-2.36-1,3.14,3.14,0,0,0-2.45,1.06,4.87,4.87,0,0,0-1.11,2.9h6.79A4.45,4.45,0,0,0,365.06,132.63Z"/><path class="cls-7" d="M370.63,143.11V130.25h1.64l0.25,1.84a5.73,5.73,0,0,1,1.9-1.53,5.37,5.37,0,0,1,2.47-.58,4.1,4.1,0,0,1,3.29,1.25,5.81,5.81,0,0,1,1.07,3.84v8h-2q0-7.73,0-8.29a4,4,0,0,0-.66-2.4,2.5,2.5,0,0,0-2.06-.76,4.2,4.2,0,0,0-2.52.73,3.3,3.3,0,0,0-1.31,1.89,12.34,12.34,0,0,0-.12,1.8v7h-2Z"/><path class="cls-7" d="M386.81,125.58v2.32h-2v-2.32h2Zm0,4.68v12.86h-2V130.25h2Z"/><path class="cls-7" d="M390.49,143.11V130.25h1.64l0.25,1.84a5.73,5.73,0,0,1,1.9-1.53,5.37,5.37,0,0,1,2.47-.58,4.1,4.1,0,0,1,3.29,1.25,5.81,5.81,0,0,1,1.07,3.84v8h-2q0-7.73,0-8.29a4,4,0,0,0-.66-2.4,2.5,2.5,0,0,0-2.06-.76,4.2,4.2,0,0,0-2.52.73,3.3,3.3,0,0,0-1.31,1.89,12.34,12.34,0,0,0-.12,1.8v7h-2Z"/><path class="cls-7" d="M406.35,149l-0.18-1.77h2.39a9.38,9.38,0,0,0,1.73-.14,3.39,3.39,0,0,0,1.23-.46,3.24,3.24,0,0,0,.8-0.71,2.74,2.74,0,0,0,.46-1,7.79,7.79,0,0,0,.21-1.24q0.05-.62.05-1.51V141a5.24,5.24,0,0,1-1.63,1.55,4.59,4.59,0,0,1-2.36.54,5.32,5.32,0,0,1-2-.38,4.76,4.76,0,0,1-1.57-1,6.22,6.22,0,0,1-1.09-1.46,6.8,6.8,0,0,1-.66-1.72,8,8,0,0,1-.21-1.79,9.33,9.33,0,0,1,.35-2.6,6.83,6.83,0,0,1,1-2.13,4.66,4.66,0,0,1,1.79-1.47,5.78,5.78,0,0,1,2.54-.53,4.76,4.76,0,0,1,2.21.49,5,5,0,0,1,1.69,1.49v-1.71H415v11.93q0,0.82,0,1.44a9.85,9.85,0,0,1-.2,1.37,5.36,5.36,0,0,1-.43,1.29,5,5,0,0,1-.76,1.08,3.8,3.8,0,0,1-1.16.88,7.1,7.1,0,0,1-1.67.54,10.91,10.91,0,0,1-2.25.21h-2.17Zm3-7.56a4.07,4.07,0,0,0,1.75-.35,2.83,2.83,0,0,0,1.17-1,4.54,4.54,0,0,0,.63-1.38,6.39,6.39,0,0,0,.21-1.66v-0.95a6.7,6.7,0,0,0-.21-1.73,4.44,4.44,0,0,0-.65-1.42,3,3,0,0,0-1.17-1,3.9,3.9,0,0,0-1.71-.35,3.48,3.48,0,0,0-1.47.3,3.14,3.14,0,0,0-1.09.8,4.79,4.79,0,0,0-.73,1.16,6,6,0,0,0-.43,1.34,7.34,7.34,0,0,0-.13,1.37,6.52,6.52,0,0,0,.14,1.35,5.69,5.69,0,0,0,.45,1.3,4.56,4.56,0,0,0,.74,1.11,3.26,3.26,0,0,0,1.08.77A3.43,3.43,0,0,0,409.36,141.43Z"/><path class="cls-7" d="M317.55,172.18a5.57,5.57,0,0,1-4.44-1.84,7.08,7.08,0,0,1-1.6-4.82,7.21,7.21,0,0,1,1.63-4.87,5.58,5.58,0,0,1,4.45-1.87,7.52,7.52,0,0,1,1.93.25,4.34,4.34,0,0,1,1.47.64l-0.54,1.52a6,6,0,0,0-2.89-.74,3.57,3.57,0,0,0-2.95,1.36,5.8,5.8,0,0,0-1.08,3.71,5.67,5.67,0,0,0,1.07,3.64,3.59,3.59,0,0,0,3,1.34,6.69,6.69,0,0,0,3.09-.82l0.25,1.56A5.6,5.6,0,0,1,317.55,172.18Z"/><path class="cls-7" d="M323,167.62v-8.57h2v8.59a3.77,3.77,0,0,0,.24,1.43,2,2,0,0,0,.69.91,3,3,0,0,0,1,.46,5.47,5.47,0,0,0,1.31.14,3.75,3.75,0,0,0,2.37-.67,2.73,2.73,0,0,0,.85-2.27v-8.59h2v8.57a5.22,5.22,0,0,1-.28,1.77,3.84,3.84,0,0,1-.76,1.31,4,4,0,0,1-1.14.86,5.56,5.56,0,0,1-1.41.49,8.44,8.44,0,0,1-3.19,0,5.5,5.5,0,0,1-1.42-.5,4.18,4.18,0,0,1-1.16-.87,3.73,3.73,0,0,1-.77-1.31A5.19,5.19,0,0,1,323,167.62Z"/><path class="cls-7" d="M342.11,158.94a6,6,0,0,1,1,.07l-0.07,1.8a5.57,5.57,0,0,0-.94-0.09,3.41,3.41,0,0,0-2.67,1.14,4.08,4.08,0,0,0-1,2.83v7.22h-2q0-11.84,0-12.86H338l0.19,2.31a5.46,5.46,0,0,1,1.7-1.76A4,4,0,0,1,342.11,158.94Z"/><path class="cls-7" d="M348.54,172.14a3.16,3.16,0,0,1-2.65-1,5.9,5.9,0,0,1-.78-3.5V154.06l1.95-.12v12.91q0,0.8,0,1.28a8.3,8.3,0,0,0,.09.94,2.45,2.45,0,0,0,.19.7,1.39,1.39,0,0,0,.34.43,1.16,1.16,0,0,0,.53.26,3.86,3.86,0,0,0,.77.06,14.53,14.53,0,0,0,1.48-.14l0.11,1.56A12.83,12.83,0,0,1,348.54,172.14Z"/><path class="cls-7" d="M350.11,159.05h2.07l4.05,10.7,3.61-10.7h2.07q-5.2,14.32-5.38,14.77a7.23,7.23,0,0,1-2,3,4.61,4.61,0,0,1-3,.94,7.94,7.94,0,0,1-1.18-.09L350.27,176q0.66,0,1,0a3.46,3.46,0,0,0,2-.49,4,4,0,0,0,1.22-1.82q0.48-1.23.71-1.9Z"/><path class="cls-7" d="M375.77,158.78a5,5,0,0,1,3,.87,5.28,5.28,0,0,1,1.86,2.36,8.79,8.79,0,0,1,.62,3.41,9.25,9.25,0,0,1-.62,3.5,5.24,5.24,0,0,1-1.86,2.38,5.07,5.07,0,0,1-3,.87,5,5,0,0,1-2.33-.55,5.09,5.09,0,0,1-1.76-1.5l-0.2,1.78h-1.68V154.06l2-.12v4.25q0,1.57,0,2.7A5,5,0,0,1,375.77,158.78Zm-0.2,1.63a3.39,3.39,0,0,0-2.85,1.28,6.09,6.09,0,0,0-1,3.77q0,5.09,3.83,5.09a3.44,3.44,0,0,0,1.67-.39,2.91,2.91,0,0,0,1.14-1.1,5.64,5.64,0,0,0,.62-1.6,8.84,8.84,0,0,0,.21-2,8.64,8.64,0,0,0-.35-2.58,3.72,3.72,0,0,0-1.18-1.79A3.17,3.17,0,0,0,375.57,160.41Z"/><path class="cls-7" d="M389.72,158.94a6,6,0,0,1,1,.07l-0.07,1.8a5.57,5.57,0,0,0-.94-0.09,3.41,3.41,0,0,0-2.67,1.14,4.08,4.08,0,0,0-1,2.83v7.22h-2q0-11.84,0-12.86h1.63l0.19,2.31a5.46,5.46,0,0,1,1.7-1.76A4,4,0,0,1,389.72,158.94Z"/><path class="cls-7" d="M400.45,171.91q-0.18-.75-0.34-1.62a6.85,6.85,0,0,1-2,1.48,5.46,5.46,0,0,1-2.2.41,4.29,4.29,0,0,1-2.9-.94,3.38,3.38,0,0,1-1.1-2.71,3.22,3.22,0,0,1,1.49-2.92,9.6,9.6,0,0,1,4.31-1.18l1.17-.1,1.17-.1v-1.14a2.81,2.81,0,0,0-.63-2,2.66,2.66,0,0,0-2-.66,8.73,8.73,0,0,0-3.83.94q-0.06-.14-0.3-0.81l-0.26-.7a8,8,0,0,1,2-.77,10.08,10.08,0,0,1,2.4-.29,4.79,4.79,0,0,1,3.46,1A4.91,4.91,0,0,1,402,163.4v8.51h-1.52Zm-4.25-1.31a4.08,4.08,0,0,0,2.46-.77,3.44,3.44,0,0,0,1.37-2.07v-2.17l-0.71.06-0.85.07a8.85,8.85,0,0,0-3.54.83,2.12,2.12,0,0,0-1,2,2,2,0,0,0,.61,1.56A2.48,2.48,0,0,0,396.19,170.6Z"/><path class="cls-7" d="M410.78,172.18a5.57,5.57,0,0,1-4.44-1.84,7.08,7.08,0,0,1-1.6-4.82,7.21,7.21,0,0,1,1.63-4.87,5.58,5.58,0,0,1,4.45-1.87,7.52,7.52,0,0,1,1.93.25,4.34,4.34,0,0,1,1.47.64l-0.54,1.52a6,6,0,0,0-2.89-.74,3.57,3.57,0,0,0-2.95,1.36,5.8,5.8,0,0,0-1.08,3.71,5.67,5.67,0,0,0,1.07,3.64,3.59,3.59,0,0,0,3,1.34,6.69,6.69,0,0,0,3.09-.82l0.25,1.56A5.6,5.6,0,0,1,410.78,172.18Z"/><path class="cls-7" d="M422.13,172.18a5.65,5.65,0,0,1-4.41-1.78,7,7,0,0,1-1.61-4.87,7.29,7.29,0,0,1,1.56-4.85,5.19,5.19,0,0,1,4.1-1.89,4.73,4.73,0,0,1,3.79,1.63,6.48,6.48,0,0,1,1.4,4.37q0,0.14,0,.52t0,0.54h-8.82a5.07,5.07,0,0,0,1.13,3.42,3.76,3.76,0,0,0,2.95,1.22,8.72,8.72,0,0,0,4.09-1.08l0.3,1.58A8.39,8.39,0,0,1,422.13,172.18Zm2-10.75a2.92,2.92,0,0,0-2.36-1,3.14,3.14,0,0,0-2.45,1.06,4.87,4.87,0,0,0-1.11,2.9H425A4.45,4.45,0,0,0,424.1,161.43Z"/></g><polyline class="cls-6" points="845.61 398.13 845.61 373.79 1086.76 373.79 1086.76 398.13"/><line class="cls-6" x1="966.18" y1="373.78" x2="966.18" y2="349.44"/><g class="cls-2"><path class="cls-8" d="M943.1,320.44l-5-12.86h2.1l2.84,7.64,1.17,3.26q0.4-1.25,1.1-3.23,0.89-2.5,2.77-7.66h2.09l-4.95,12.86H943.1Z"/><path class="cls-8" d="M959.69,320.44q-0.18-.75-0.34-1.62a6.85,6.85,0,0,1-2,1.48,5.46,5.46,0,0,1-2.2.41,4.29,4.29,0,0,1-2.9-.94,3.38,3.38,0,0,1-1.1-2.71,3.22,3.22,0,0,1,1.49-2.92,9.6,9.6,0,0,1,4.31-1.18l1.17-.1,1.17-.1v-1.14a2.81,2.81,0,0,0-.63-2,2.66,2.66,0,0,0-2-.66,8.73,8.73,0,0,0-3.83.94q-0.06-.14-0.3-0.81l-0.26-.7a8,8,0,0,1,2-.77,10.08,10.08,0,0,1,2.4-.29,4.79,4.79,0,0,1,3.46,1,4.91,4.91,0,0,1,1.06,3.57v8.51h-1.52Zm-4.25-1.31a4.08,4.08,0,0,0,2.46-.77,3.44,3.44,0,0,0,1.37-2.07v-2.17l-0.71.06-0.85.07a8.85,8.85,0,0,0-3.54.83,2.12,2.12,0,0,0-1,2,2,2,0,0,0,.61,1.56A2.48,2.48,0,0,0,955.44,319.13Z"/><path class="cls-8" d="M968,320.67a3.16,3.16,0,0,1-2.65-1,5.9,5.9,0,0,1-.78-3.5V302.59l1.95-.12v12.91q0,0.8,0,1.28a8.3,8.3,0,0,0,.09.94,2.45,2.45,0,0,0,.19.7,1.39,1.39,0,0,0,.34.43,1.16,1.16,0,0,0,.53.26,3.86,3.86,0,0,0,.77.06,14.53,14.53,0,0,0,1.48-.14l0.11,1.56A12.83,12.83,0,0,1,968,320.67Z"/><path class="cls-8" d="M970.81,316.15v-8.57h2v8.59a3.77,3.77,0,0,0,.24,1.43,2,2,0,0,0,.69.91,3,3,0,0,0,1,.46,5.47,5.47,0,0,0,1.31.14,3.75,3.75,0,0,0,2.37-.67,2.73,2.73,0,0,0,.85-2.27v-8.59h2v8.57a5.22,5.22,0,0,1-.28,1.77,3.84,3.84,0,0,1-.76,1.31,4,4,0,0,1-1.14.86,5.56,5.56,0,0,1-1.41.49,8.44,8.44,0,0,1-3.19,0,5.5,5.5,0,0,1-1.42-.5,4.18,4.18,0,0,1-1.16-.87,3.73,3.73,0,0,1-.77-1.31A5.19,5.19,0,0,1,970.81,316.15Z"/><path class="cls-8" d="M989.58,320.71a5.65,5.65,0,0,1-4.41-1.78,7,7,0,0,1-1.61-4.87,7.29,7.29,0,0,1,1.56-4.85,5.19,5.19,0,0,1,4.1-1.89,4.73,4.73,0,0,1,3.79,1.63,6.48,6.48,0,0,1,1.4,4.37q0,0.14,0,.52t0,0.54h-8.82a5.07,5.07,0,0,0,1.13,3.42,3.76,3.76,0,0,0,2.95,1.22,8.72,8.72,0,0,0,4.09-1.08l0.3,1.58A8.39,8.39,0,0,1,989.58,320.71Zm2-10.75a2.92,2.92,0,0,0-2.36-1,3.14,3.14,0,0,0-2.45,1.06,4.87,4.87,0,0,0-1.11,2.9h6.79A4.45,4.45,0,0,0,991.56,310Z"/></g><polyline class="cls-6" points="405.76 686.26 405.76 710.6 338.4 710.6 338.4 686.26"/><line class="cls-6" x1="371.8" y1="710.6" x2="371.8" y2="735.51"/><g class="cls-2"><path class="cls-7" d="M340,777.41a5.57,5.57,0,0,1-4.44-1.84,7.08,7.08,0,0,1-1.6-4.82,7.21,7.21,0,0,1,1.63-4.87A5.58,5.58,0,0,1,340,764a7.52,7.52,0,0,1,1.93.25,4.34,4.34,0,0,1,1.47.64l-0.54,1.52a6,6,0,0,0-2.89-.74,3.57,3.57,0,0,0-2.95,1.36,5.8,5.8,0,0,0-1.08,3.71A5.67,5.67,0,0,0,337,774.4a3.59,3.59,0,0,0,3,1.34,6.69,6.69,0,0,0,3.09-.82l0.25,1.56A5.6,5.6,0,0,1,340,777.41Z"/><path class="cls-7" d="M349.36,777.37a3.16,3.16,0,0,1-2.65-1,5.9,5.9,0,0,1-.78-3.5V759.29l1.95-.12v12.91q0,0.8,0,1.28a8.3,8.3,0,0,0,.09.94,2.45,2.45,0,0,0,.19.7,1.39,1.39,0,0,0,.34.43,1.16,1.16,0,0,0,.53.26,3.86,3.86,0,0,0,.77.06,14.53,14.53,0,0,0,1.48-.14l0.11,1.56A12.83,12.83,0,0,1,349.36,777.37Z"/><path class="cls-7" d="M363.88,770.71a7.18,7.18,0,0,1-1.59,4.85,5.5,5.5,0,0,1-4.41,1.86,5.37,5.37,0,0,1-4.31-1.87,8.09,8.09,0,0,1,0-9.67A5.53,5.53,0,0,1,358,764a5.36,5.36,0,0,1,4.32,1.86A7.23,7.23,0,0,1,363.88,770.71Zm-9.88,0a6,6,0,0,0,1,3.66,3.45,3.45,0,0,0,3,1.38,3.33,3.33,0,0,0,2.9-1.37,7.52,7.52,0,0,0,0-7.4,3.84,3.84,0,0,0-5.88,0A6.16,6.16,0,0,0,354,770.74Z"/><path class="cls-7" d="M370.47,777.41a9.82,9.82,0,0,1-2.42-.28,6.11,6.11,0,0,1-1.8-.73l0.25-1.65a8.14,8.14,0,0,0,3.84,1q2.86,0,2.94-2a1.64,1.64,0,0,0-.61-1.35,8.67,8.67,0,0,0-2.39-1.1l-1-.34a5.4,5.4,0,0,1-2.41-1.39,3.24,3.24,0,0,1,.48-4.58,5.08,5.08,0,0,1,3.32-1,9.21,9.21,0,0,1,4,.84l-0.57,1.5a8.94,8.94,0,0,0-3.4-.75,3.33,3.33,0,0,0-1.93.49,1.57,1.57,0,0,0-.7,1.37,1.38,1.38,0,0,0,.5,1.15,7.58,7.58,0,0,0,2,.91l1,0.33a6.57,6.57,0,0,1,2.75,1.49,3.26,3.26,0,0,1,.81,2.33,3.36,3.36,0,0,1-1.28,2.76A5.36,5.36,0,0,1,370.47,777.41Z"/><path class="cls-7" d="M380.12,759.61v2.32h-2v-2.32h2Zm0,4.68v12.86h-2V764.28h2Z"/><path class="cls-7" d="M383.8,777.14V764.28h1.64l0.25,1.84a5.73,5.73,0,0,1,1.9-1.53,5.37,5.37,0,0,1,2.47-.58,4.1,4.1,0,0,1,3.29,1.25,5.81,5.81,0,0,1,1.07,3.84v8h-2q0-7.73,0-8.29a4,4,0,0,0-.66-2.4,2.5,2.5,0,0,0-2.06-.76,4.2,4.2,0,0,0-2.52.73,3.3,3.3,0,0,0-1.31,1.89,12.34,12.34,0,0,0-.12,1.8v7h-2Z"/><path class="cls-7" d="M399.65,783l-0.18-1.77h2.39a9.38,9.38,0,0,0,1.73-.14,3.39,3.39,0,0,0,1.23-.46,3.24,3.24,0,0,0,.8-0.71,2.74,2.74,0,0,0,.46-1,7.79,7.79,0,0,0,.21-1.24q0.05-.62.05-1.51V775a5.24,5.24,0,0,1-1.63,1.55,4.59,4.59,0,0,1-2.36.54,5.32,5.32,0,0,1-2-.38,4.76,4.76,0,0,1-1.57-1,6.22,6.22,0,0,1-1.09-1.46,6.8,6.8,0,0,1-.66-1.72,8,8,0,0,1-.21-1.79,9.33,9.33,0,0,1,.35-2.6,6.83,6.83,0,0,1,1-2.13,4.66,4.66,0,0,1,1.79-1.47,5.78,5.78,0,0,1,2.54-.53,4.76,4.76,0,0,1,2.21.49,5,5,0,0,1,1.69,1.49v-1.71h1.91v11.93q0,0.82,0,1.44a9.85,9.85,0,0,1-.2,1.37,5.36,5.36,0,0,1-.43,1.29,5,5,0,0,1-.76,1.08,3.8,3.8,0,0,1-1.16.88,7.1,7.1,0,0,1-1.67.54,10.91,10.91,0,0,1-2.25.21h-2.17Zm3-7.56a4.07,4.07,0,0,0,1.75-.35,2.83,2.83,0,0,0,1.17-1,4.54,4.54,0,0,0,.63-1.38,6.39,6.39,0,0,0,.21-1.66v-0.95a6.7,6.7,0,0,0-.21-1.73,4.44,4.44,0,0,0-.65-1.42,3,3,0,0,0-1.17-1,3.9,3.9,0,0,0-1.71-.35,3.48,3.48,0,0,0-1.47.3,3.14,3.14,0,0,0-1.09.8,4.79,4.79,0,0,0-.73,1.16,6,6,0,0,0-.43,1.34,7.34,7.34,0,0,0-.13,1.37A6.52,6.52,0,0,0,399,772a5.69,5.69,0,0,0,.45,1.3,4.56,4.56,0,0,0,.74,1.11,3.26,3.26,0,0,0,1.08.77A3.43,3.43,0,0,0,402.67,775.46Z"/><path class="cls-7" d="M316.73,806.21a5.57,5.57,0,0,1-4.44-1.84,7.08,7.08,0,0,1-1.6-4.82,7.21,7.21,0,0,1,1.63-4.87,5.58,5.58,0,0,1,4.45-1.87,7.52,7.52,0,0,1,1.93.25,4.34,4.34,0,0,1,1.47.64l-0.54,1.52a6,6,0,0,0-2.89-.74,3.57,3.57,0,0,0-2.95,1.36,5.8,5.8,0,0,0-1.08,3.71,5.67,5.67,0,0,0,1.07,3.64,3.59,3.59,0,0,0,3,1.34,6.69,6.69,0,0,0,3.09-.82l0.25,1.56A5.6,5.6,0,0,1,316.73,806.21Z"/><path class="cls-7" d="M322.19,801.65v-8.57h2v8.59a3.77,3.77,0,0,0,.24,1.43,2,2,0,0,0,.69.91,3,3,0,0,0,1,.46,5.47,5.47,0,0,0,1.31.14,3.75,3.75,0,0,0,2.37-.67,2.73,2.73,0,0,0,.85-2.27v-8.59h2v8.57a5.22,5.22,0,0,1-.28,1.77,3.84,3.84,0,0,1-.76,1.31,4,4,0,0,1-1.14.86,5.56,5.56,0,0,1-1.41.49,8.44,8.44,0,0,1-3.19,0,5.5,5.5,0,0,1-1.42-.5,4.18,4.18,0,0,1-1.16-.87,3.73,3.73,0,0,1-.77-1.31A5.19,5.19,0,0,1,322.19,801.65Z"/><path class="cls-7" d="M341.29,793a6,6,0,0,1,1,.07l-0.07,1.8a5.57,5.57,0,0,0-.94-0.09,3.41,3.41,0,0,0-2.67,1.14,4.08,4.08,0,0,0-1,2.83v7.22h-2q0-11.84,0-12.86h1.63l0.19,2.31a5.46,5.46,0,0,1,1.7-1.76A4,4,0,0,1,341.29,793Z"/><path class="cls-7" d="M347.73,806.17a3.16,3.16,0,0,1-2.65-1,5.9,5.9,0,0,1-.78-3.5V788.09l1.95-.12v12.91q0,0.8,0,1.28a8.3,8.3,0,0,0,.09.94,2.45,2.45,0,0,0,.19.7,1.39,1.39,0,0,0,.34.43,1.16,1.16,0,0,0,.53.26,3.86,3.86,0,0,0,.77.06,14.53,14.53,0,0,0,1.48-.14l0.11,1.56A12.83,12.83,0,0,1,347.73,806.17Z"/><path class="cls-7" d="M349.3,793.08h2.07l4.05,10.7,3.61-10.7h2.07q-5.2,14.32-5.38,14.77a7.23,7.23,0,0,1-2,3,4.61,4.61,0,0,1-3,.94,7.94,7.94,0,0,1-1.18-.09L349.45,810q0.66,0,1,0a3.46,3.46,0,0,0,2-.49,4,4,0,0,0,1.22-1.82q0.48-1.23.71-1.9Z"/><path class="cls-7" d="M375,792.81a5,5,0,0,1,3,.87,5.28,5.28,0,0,1,1.86,2.36,8.79,8.79,0,0,1,.62,3.41,9.25,9.25,0,0,1-.62,3.5,5.24,5.24,0,0,1-1.86,2.38,5.07,5.07,0,0,1-3,.87,5,5,0,0,1-2.33-.55,5.09,5.09,0,0,1-1.76-1.5l-0.2,1.78H369V788.09l2-.12v4.25q0,1.57,0,2.7A5,5,0,0,1,375,792.81Zm-0.2,1.63a3.39,3.39,0,0,0-2.85,1.28,6.09,6.09,0,0,0-1,3.77q0,5.09,3.83,5.09a3.44,3.44,0,0,0,1.67-.39,2.91,2.91,0,0,0,1.14-1.1,5.64,5.64,0,0,0,.62-1.6,8.84,8.84,0,0,0,.21-2,8.64,8.64,0,0,0-.35-2.58,3.72,3.72,0,0,0-1.18-1.79A3.17,3.17,0,0,0,374.75,794.44Z"/><path class="cls-7" d="M388.91,793a6,6,0,0,1,1,.07l-0.07,1.8a5.57,5.57,0,0,0-.94-0.09,3.41,3.41,0,0,0-2.67,1.14,4.08,4.08,0,0,0-1,2.83v7.22h-2q0-11.84,0-12.86h1.63l0.19,2.31a5.46,5.46,0,0,1,1.7-1.76A4,4,0,0,1,388.91,793Z"/><path class="cls-7" d="M399.63,805.94q-0.18-.75-0.34-1.62a6.85,6.85,0,0,1-2,1.48,5.46,5.46,0,0,1-2.2.41,4.29,4.29,0,0,1-2.9-.94,3.38,3.38,0,0,1-1.1-2.71,3.22,3.22,0,0,1,1.49-2.92,9.6,9.6,0,0,1,4.31-1.18l1.17-.1,1.17-.1v-1.14a2.81,2.81,0,0,0-.63-2,2.66,2.66,0,0,0-2-.66,8.73,8.73,0,0,0-3.83.94q-0.06-.14-0.3-0.81l-0.26-.7a8,8,0,0,1,2-.77,10.08,10.08,0,0,1,2.4-.29,4.79,4.79,0,0,1,3.46,1,4.91,4.91,0,0,1,1.06,3.57v8.51h-1.52Zm-4.25-1.31a4.08,4.08,0,0,0,2.46-.77,3.44,3.44,0,0,0,1.37-2.07v-2.17l-0.71.06-0.85.07a8.85,8.85,0,0,0-3.54.83,2.12,2.12,0,0,0-1,2,2,2,0,0,0,.61,1.56A2.48,2.48,0,0,0,395.38,804.63Z"/><path class="cls-7" d="M410,806.21a5.57,5.57,0,0,1-4.44-1.84,7.08,7.08,0,0,1-1.6-4.82,7.21,7.21,0,0,1,1.63-4.87,5.58,5.58,0,0,1,4.45-1.87,7.52,7.52,0,0,1,1.93.25,4.34,4.34,0,0,1,1.47.64l-0.54,1.52a6,6,0,0,0-2.89-.74,3.57,3.57,0,0,0-2.95,1.36,5.8,5.8,0,0,0-1.08,3.71A5.67,5.67,0,0,0,407,803.2a3.59,3.59,0,0,0,3,1.34,6.69,6.69,0,0,0,3.09-.82l0.25,1.56A5.6,5.6,0,0,1,410,806.21Z"/><path class="cls-7" d="M421.31,806.21a5.65,5.65,0,0,1-4.41-1.78,7,7,0,0,1-1.61-4.87,7.29,7.29,0,0,1,1.56-4.85,5.19,5.19,0,0,1,4.1-1.89,4.73,4.73,0,0,1,3.79,1.63,6.48,6.48,0,0,1,1.4,4.37q0,0.14,0,.52t0,0.54H417.3a5.07,5.07,0,0,0,1.13,3.42,3.76,3.76,0,0,0,2.95,1.22,8.72,8.72,0,0,0,4.09-1.08l0.3,1.58A8.39,8.39,0,0,1,421.31,806.21Zm2-10.75a2.92,2.92,0,0,0-2.36-1,3.14,3.14,0,0,0-2.45,1.06,4.87,4.87,0,0,0-1.11,2.9h6.79A4.45,4.45,0,0,0,423.28,795.46Z"/></g><polyline class="cls-6" points="817.87 514.74 817.87 535.12 785.04 535.12 785.04 514.74"/><line class="cls-6" x1="801.45" y1="535.12" x2="801.45" y2="550.97"/><g class="cls-2"><path class="cls-7" d="M779.09,590.32a5.57,5.57,0,0,1-4.44-1.84,7.08,7.08,0,0,1-1.6-4.82,7.21,7.21,0,0,1,1.63-4.87,5.58,5.58,0,0,1,4.45-1.87,7.52,7.52,0,0,1,1.93.25,4.34,4.34,0,0,1,1.47.64L782,579.34a6,6,0,0,0-2.89-.74,3.57,3.57,0,0,0-2.95,1.36,5.8,5.8,0,0,0-1.08,3.71,5.67,5.67,0,0,0,1.07,3.64,3.59,3.59,0,0,0,3,1.34,6.69,6.69,0,0,0,3.09-.82l0.25,1.56A5.6,5.6,0,0,1,779.09,590.32Z"/><path class="cls-7" d="M796.31,583.62a7.18,7.18,0,0,1-1.59,4.85,5.5,5.5,0,0,1-4.41,1.86,5.37,5.37,0,0,1-4.31-1.87,8.09,8.09,0,0,1,0-9.67,5.53,5.53,0,0,1,4.41-1.85,5.36,5.36,0,0,1,4.32,1.86A7.23,7.23,0,0,1,796.31,583.62Zm-9.88,0a6,6,0,0,0,1,3.66,3.45,3.45,0,0,0,3,1.38,3.33,3.33,0,0,0,2.9-1.37,7.52,7.52,0,0,0,0-7.4,3.84,3.84,0,0,0-5.88,0A6.16,6.16,0,0,0,786.43,583.66Z"/><path class="cls-7" d="M802.53,590.29a3.16,3.16,0,0,1-2.65-1,5.9,5.9,0,0,1-.78-3.5V572.21l1.95-.12V585q0,0.8,0,1.28a8.3,8.3,0,0,0,.09.94,2.45,2.45,0,0,0,.19.7,1.39,1.39,0,0,0,.34.43,1.16,1.16,0,0,0,.53.26,3.86,3.86,0,0,0,.77.06,14.53,14.53,0,0,0,1.48-.14l0.11,1.56A12.83,12.83,0,0,1,802.53,590.29Z"/><path class="cls-7" d="M817,583.62a7.18,7.18,0,0,1-1.59,4.85,5.5,5.5,0,0,1-4.41,1.86,5.37,5.37,0,0,1-4.31-1.87,8.09,8.09,0,0,1,0-9.67,5.53,5.53,0,0,1,4.41-1.85,5.36,5.36,0,0,1,4.32,1.86A7.23,7.23,0,0,1,817,583.62Zm-9.88,0a6,6,0,0,0,1,3.66,3.45,3.45,0,0,0,3,1.38,3.33,3.33,0,0,0,2.9-1.37,7.52,7.52,0,0,0,0-7.4,3.84,3.84,0,0,0-5.88,0A6.16,6.16,0,0,0,807.17,583.66Z"/><path class="cls-7" d="M819.81,590.06V577.2h1.64L821.7,579a5.73,5.73,0,0,1,1.9-1.53,5.37,5.37,0,0,1,2.47-.58,4.1,4.1,0,0,1,3.29,1.25,5.81,5.81,0,0,1,1.07,3.84v8h-2q0-7.73,0-8.29a4,4,0,0,0-.66-2.4,2.5,2.5,0,0,0-2.06-.76,4.2,4.2,0,0,0-2.52.73,3.3,3.3,0,0,0-1.31,1.89,12.34,12.34,0,0,0-.12,1.8v7h-2Z"/></g><polyline class="cls-6" points="1124.68 515.87 1124.68 536.25 1090.72 536.25 1090.72 515.87"/><line class="cls-6" x1="1107.7" y1="536.25" x2="1107.7" y2="552.1"/><g class="cls-2"><path class="cls-7" d="M1058.15,594.12a9.82,9.82,0,0,1-2.42-.28,6.11,6.11,0,0,1-1.8-.73l0.25-1.65a8.14,8.14,0,0,0,3.84,1q2.86,0,2.94-2a1.64,1.64,0,0,0-.61-1.35A8.67,8.67,0,0,0,1058,588l-1-.34a5.4,5.4,0,0,1-2.41-1.39,3.24,3.24,0,0,1,.48-4.58,5.08,5.08,0,0,1,3.32-1,9.21,9.21,0,0,1,4,.84l-0.57,1.5a8.94,8.94,0,0,0-3.4-.75,3.33,3.33,0,0,0-1.93.49,1.57,1.57,0,0,0-.7,1.37,1.38,1.38,0,0,0,.5,1.15,7.58,7.58,0,0,0,2,.91l1,0.33a6.57,6.57,0,0,1,2.75,1.49,3.26,3.26,0,0,1,.81,2.33,3.36,3.36,0,0,1-1.28,2.76A5.36,5.36,0,0,1,1058.15,594.12Z"/><path class="cls-7" d="M1070.93,594.12a5.65,5.65,0,0,1-4.41-1.78,7,7,0,0,1-1.61-4.87,7.29,7.29,0,0,1,1.56-4.85,5.19,5.19,0,0,1,4.1-1.89,4.73,4.73,0,0,1,3.79,1.63,6.48,6.48,0,0,1,1.4,4.37q0,0.14,0,.52t0,0.54h-8.82a5.07,5.07,0,0,0,1.13,3.42,3.76,3.76,0,0,0,2.95,1.22,8.72,8.72,0,0,0,4.09-1.08l0.3,1.58A8.39,8.39,0,0,1,1070.93,594.12Zm2-10.75a2.92,2.92,0,0,0-2.36-1,3.14,3.14,0,0,0-2.45,1.06,4.87,4.87,0,0,0-1.11,2.9h6.79A4.45,4.45,0,0,0,1072.9,583.37Z"/><path class="cls-7" d="M1094.8,593.85v-6.69q0-.94,0-1.57a8.41,8.41,0,0,0-.19-1.29,3,3,0,0,0-.41-1,2,2,0,0,0-.73-0.62,2.44,2.44,0,0,0-1.12-.24,3.52,3.52,0,0,0-2.2.69,3.75,3.75,0,0,0-1.29,1.95,14.57,14.57,0,0,0-.11,1.8v7h-2v-6.9q0-.87-0.06-1.51a7.25,7.25,0,0,0-.22-1.24,3,3,0,0,0-.44-1,2,2,0,0,0-.73-0.6,2.47,2.47,0,0,0-1.09-.22,3.83,3.83,0,0,0-2.36.71,3.46,3.46,0,0,0-1.28,1.9,16.91,16.91,0,0,0-.11,2v6.88h-2q0-12.06,0-12.86h1.64l0.25,1.84a4.72,4.72,0,0,1,1.66-1.5,4.89,4.89,0,0,1,2.45-.61,5.58,5.58,0,0,1,1.32.15,4.11,4.11,0,0,1,1,.37,3.28,3.28,0,0,1,.72.53,3,3,0,0,1,.49.61,3.66,3.66,0,0,1,.29.63,4.7,4.7,0,0,1,4.3-2.29,3.83,3.83,0,0,1,3.15,1.22,5.62,5.62,0,0,1,1,3.63v8.27h-2Z"/><path class="cls-7" d="M1101.56,576.32v2.32h-2v-2.32h2Zm0,4.68v12.86h-2V581h2Z"/><path class="cls-7" d="M1110.68,594.12a5.57,5.57,0,0,1-4.44-1.84,7.08,7.08,0,0,1-1.6-4.82,7.21,7.21,0,0,1,1.63-4.87,5.58,5.58,0,0,1,4.45-1.87,7.52,7.52,0,0,1,1.93.25,4.34,4.34,0,0,1,1.47.64l-0.54,1.52a6,6,0,0,0-2.89-.74,3.57,3.57,0,0,0-2.95,1.36,5.8,5.8,0,0,0-1.08,3.71,5.67,5.67,0,0,0,1.07,3.64,3.59,3.59,0,0,0,3,1.34,6.69,6.69,0,0,0,3.09-.82l0.25,1.56A5.6,5.6,0,0,1,1110.68,594.12Z"/><path class="cls-7" d="M1127.89,587.42a7.18,7.18,0,0,1-1.59,4.85,5.5,5.5,0,0,1-4.41,1.86,5.37,5.37,0,0,1-4.31-1.87,8.09,8.09,0,0,1,0-9.67,5.53,5.53,0,0,1,4.41-1.85,5.36,5.36,0,0,1,4.32,1.86A7.23,7.23,0,0,1,1127.89,587.42Zm-9.88,0a6,6,0,0,0,1,3.66,3.45,3.45,0,0,0,3,1.38,3.33,3.33,0,0,0,2.9-1.37,7.52,7.52,0,0,0,0-7.4,3.84,3.84,0,0,0-5.88,0A6.16,6.16,0,0,0,1118,587.45Z"/><path class="cls-7" d="M1134.12,594.08a3.16,3.16,0,0,1-2.65-1,5.9,5.9,0,0,1-.78-3.5V576l1.95-.12V588.8q0,0.8,0,1.28a8.3,8.3,0,0,0,.09.94,2.45,2.45,0,0,0,.19.7,1.39,1.39,0,0,0,.34.43,1.16,1.16,0,0,0,.53.26,3.86,3.86,0,0,0,.77.06,14.53,14.53,0,0,0,1.48-.14l0.11,1.56A12.83,12.83,0,0,1,1134.12,594.08Z"/><path class="cls-7" d="M1148.64,587.42a7.18,7.18,0,0,1-1.59,4.85,5.5,5.5,0,0,1-4.41,1.86,5.37,5.37,0,0,1-4.31-1.87,8.09,8.09,0,0,1,0-9.67,5.53,5.53,0,0,1,4.41-1.85,5.36,5.36,0,0,1,4.32,1.86A7.23,7.23,0,0,1,1148.64,587.42Zm-9.88,0a6,6,0,0,0,1,3.66,3.45,3.45,0,0,0,3,1.38,3.33,3.33,0,0,0,2.9-1.37,7.52,7.52,0,0,0,0-7.4,3.84,3.84,0,0,0-5.88,0A6.16,6.16,0,0,0,1138.76,587.45Z"/><path class="cls-7" d="M1151.4,593.85V581H1153l0.25,1.84a5.73,5.73,0,0,1,1.9-1.53,5.37,5.37,0,0,1,2.47-.58A4.1,4.1,0,0,1,1161,582a5.81,5.81,0,0,1,1.07,3.84v8h-2q0-7.73,0-8.29a4,4,0,0,0-.66-2.4,2.5,2.5,0,0,0-2.06-.76,4.2,4.2,0,0,0-2.52.73,3.3,3.3,0,0,0-1.31,1.89,12.34,12.34,0,0,0-.12,1.8v7h-2Z"/></g><g class="cls-2"><path class="cls-8" d="M905.08,481.85h-9.3v20.29h-9.19V481.85h-37v-8.37l35.93-53.16h10.23v53.59h10.06Zm-18.48-49.11-27.34,41.18h27.34V432.74Z"/><path class="cls-8" d="M916.13,502.14l-1.26-9,28.27-31.39a40.72,40.72,0,0,0,5.5-8.2,63,63,0,0,0,3.86-8.53l1.26-3.45q0-6.78-3.77-10.53t-10.72-3.75q-11.59,0-18.27,6.73l-3.17-8.2q7.55-7.11,22.09-7.11,11.16,0,17.77,6t6.62,16.16q-0.22.77-.66,2.05t-1.89,5q-1.45,3.72-3,7.05a81.35,81.35,0,0,1-4,7.33,40.63,40.63,0,0,1-4.95,6.67l-23.08,24.66h37.9l-0.6,8.42H916.13Z"/><path class="cls-8" d="M978.8,528.17v-86h8l0.88,8.15q7.88-9.4,18.92-9.41a23.12,23.12,0,0,1,13.89,4.1,24,24,0,0,1,8.39,11.1,45.21,45.21,0,0,1,2.71,16.35,40.55,40.55,0,0,1-3,15.94,25,25,0,0,1-8.67,11,22.65,22.65,0,0,1-13.37,4,23.58,23.58,0,0,1-10.88-2.6,22.3,22.3,0,0,1-8.15-6.86q0.33,5.91.33,11.48v22.15Zm26.58-32.48a14.65,14.65,0,0,0,7.44-1.89,14.85,14.85,0,0,0,5.3-5.17,26.14,26.14,0,0,0,3.06-7.46,37.49,37.49,0,0,0,1-9.05q0-10.28-4.32-16.87t-12.63-6.59q-17.39,0-17.39,22.48,0,12.2,4.07,18.38T1005.38,495.69Z"/><path class="cls-8" d="M1059.19,471.62L1038,442.15h10.45l16,22.86,16.08-22.86H1091l-21.22,29.59,21.77,30.41h-10.12L1064.55,478l-16.9,24.12H1037.2Z"/></g><g class="cls-2"><path class="cls-4" d="M1115.31,491.37l-6.84,27.73h-6.18l3.06-27.73h10Zm-11-38.06V440.67h11.27V453.3h-11.27Z"/></g><g class="cls-2"><path class="cls-4" d="M376.87,621.12a13,13,0,0,1-7.63-5.71,17.93,17.93,0,0,1-2.43-9.38V591.54q0-6.89-2.16-9.65t-8.07-2.82v-7.55q10.06,0,14.66,4.59t4.59,14.22v11.38a52.4,52.4,0,0,0,.22,5.28,20.41,20.41,0,0,0,.9,4.21,8,8,0,0,0,1.94,3.34,9.19,9.19,0,0,0,3.42,2,16.83,16.83,0,0,0,5.28.82v7.93a15.29,15.29,0,0,0-5.14.77,9.29,9.29,0,0,0-3.42,2,8.33,8.33,0,0,0-2,3.36,20.53,20.53,0,0,0-1,4.29,47.89,47.89,0,0,0-.25,5.25v13.23q0,16.73-19.25,16.84v-7.55q5.91-.06,8.07-2.73t2.16-9.68V636.6a14.89,14.89,0,0,1,2.13-8.39Q371.07,625,376.87,621.12Z"/></g><g class="cls-2"><path class="cls-4" d="M370.08,310.9a14.89,14.89,0,0,1,2.13,8.39v14.49q0,7,2.16,9.68t8.07,2.73v7.55q-19.25-.11-19.25-16.84V323.67a47.89,47.89,0,0,0-.25-5.25,20.53,20.53,0,0,0-1-4.29,8.33,8.33,0,0,0-2-3.36,9.29,9.29,0,0,0-3.42-2,15.29,15.29,0,0,0-5.14-.77V300a16.83,16.83,0,0,0,5.28-.82,9.19,9.19,0,0,0,3.42-2,8,8,0,0,0,1.94-3.34,20.41,20.41,0,0,0,.9-4.21,52.4,52.4,0,0,0,.22-5.28V273q0-9.62,4.59-14.22t14.66-4.59v7.55q-5.91.06-8.07,2.82t-2.16,9.65v14.49a17.93,17.93,0,0,1-2.43,9.38,13,13,0,0,1-7.63,5.71Q367.94,307.7,370.08,310.9Z"/></g><g class="cls-2"><path class="cls-5" d="M270.8,346.68V310.42q0-9-2.87-13.12t-10-4.1a19.21,19.21,0,0,0-11.62,3.45,15.62,15.62,0,0,0-6.15,8.91,77.13,77.13,0,0,0-.49,9.13v32h-9.13V263.39l9.13-.55v24.39q0,3.12-.22,7.71,7.71-9.52,20.45-9.52,20.07,0,20.07,23.57v37.68H270.8Z"/><path class="cls-5" d="M299.89,264.87h8.7v81.81h-9.68V275a56.07,56.07,0,0,1-13.51,6.18V272L289,270.5q2.68-1.15,4-1.75t3.36-1.7A33.82,33.82,0,0,0,299.89,264.87Z"/></g><polyline class="cls-6" points="207.64 355.1 183.86 355.1 183.86 254.91 207.64 254.91"/><line class="cls-6" x1="159.52" y1="304.72" x2="183.86" y2="304.72"/><path class="cls-3" d="M185.46,469.88V451.44h1.72l0.19,1.75a5.12,5.12,0,0,1,4.05-2,5,5,0,0,1,3,.88,5.14,5.14,0,0,1,1.8,2.38,9.69,9.69,0,0,1,.58,3.5,8.69,8.69,0,0,1-.63,3.42,5.36,5.36,0,0,1-1.86,2.36,4.85,4.85,0,0,1-2.87.86,5.05,5.05,0,0,1-2.33-.56,4.78,4.78,0,0,1-1.75-1.47q0.07,1.27.07,2.46v4.75Zm5.7-7a3.14,3.14,0,0,0,1.59-.4,3.18,3.18,0,0,0,1.14-1.11,5.6,5.6,0,0,0,.66-1.6,8,8,0,0,0,.22-1.94,6.48,6.48,0,0,0-.93-3.62,3,3,0,0,0-2.71-1.41q-3.73,0-3.73,4.82a7.21,7.21,0,0,0,.87,3.94A3.19,3.19,0,0,0,191.15,462.92Z"/><path class="cls-3" d="M205.3,451.33a6,6,0,0,1,1,.07l-0.07,1.8a5.57,5.57,0,0,0-.94-0.09,3.41,3.41,0,0,0-2.67,1.14,4.08,4.08,0,0,0-1,2.83v7.22h-2q0-11.84,0-12.86h1.63l0.19,2.31a5.46,5.46,0,0,1,1.7-1.76A4,4,0,0,1,205.3,451.33Z"/><path class="cls-3" d="M219.35,457.87a7.18,7.18,0,0,1-1.59,4.85,5.5,5.5,0,0,1-4.41,1.86,5.37,5.37,0,0,1-4.31-1.87,8.09,8.09,0,0,1,0-9.67,5.53,5.53,0,0,1,4.41-1.85,5.36,5.36,0,0,1,4.32,1.86A7.23,7.23,0,0,1,219.35,457.87Zm-9.88,0a6,6,0,0,0,1,3.66,3.45,3.45,0,0,0,3,1.38,3.33,3.33,0,0,0,2.9-1.37,7.52,7.52,0,0,0,0-7.4,3.84,3.84,0,0,0-5.88,0A6.16,6.16,0,0,0,209.47,457.9Z"/><path class="cls-3" d="M222.12,469.88V451.44h1.72l0.19,1.75a5.12,5.12,0,0,1,4.05-2,5,5,0,0,1,3,.88,5.14,5.14,0,0,1,1.8,2.38,9.69,9.69,0,0,1,.58,3.5,8.69,8.69,0,0,1-.63,3.42,5.36,5.36,0,0,1-1.86,2.36,4.85,4.85,0,0,1-2.87.86,5.05,5.05,0,0,1-2.33-.56,4.78,4.78,0,0,1-1.75-1.47q0.07,1.27.07,2.46v4.75Zm5.7-7a3.14,3.14,0,0,0,1.59-.4,3.18,3.18,0,0,0,1.14-1.11,5.6,5.6,0,0,0,.66-1.6,8,8,0,0,0,.22-1.94,6.48,6.48,0,0,0-.93-3.62,3,3,0,0,0-2.71-1.41q-3.73,0-3.73,4.82a7.21,7.21,0,0,0,.87,3.94A3.19,3.19,0,0,0,227.81,462.92Z"/><path class="cls-3" d="M241.63,464.57a5.65,5.65,0,0,1-4.41-1.78,7,7,0,0,1-1.61-4.87,7.29,7.29,0,0,1,1.56-4.85,5.19,5.19,0,0,1,4.1-1.89,4.73,4.73,0,0,1,3.79,1.63,6.48,6.48,0,0,1,1.4,4.37q0,0.14,0,.52t0,0.54h-8.82a5.07,5.07,0,0,0,1.13,3.42,3.76,3.76,0,0,0,2.95,1.22,8.72,8.72,0,0,0,4.09-1.08l0.3,1.58A8.39,8.39,0,0,1,241.63,464.57Zm2-10.75a2.92,2.92,0,0,0-2.36-1,3.14,3.14,0,0,0-2.45,1.06,4.87,4.87,0,0,0-1.11,2.9h6.79A4.45,4.45,0,0,0,243.6,453.82Z"/><path class="cls-3" d="M254.94,451.33a6,6,0,0,1,1,.07l-0.07,1.8a5.57,5.57,0,0,0-.94-0.09,3.41,3.41,0,0,0-2.67,1.14,4.08,4.08,0,0,0-1,2.83v7.22h-2q0-11.84,0-12.86h1.63l0.19,2.31a5.46,5.46,0,0,1,1.7-1.76A4,4,0,0,1,254.94,451.33Z"/><path class="cls-3" d="M262,464.53a3.4,3.4,0,0,1-2.7-.93,4.72,4.72,0,0,1-.84-3V452.9h-1.91l0.08-1.29,1.82-.16,0.67-2.94,1.29,0v3H264v1.45h-3.57v7.37a3.57,3.57,0,0,0,.45,2.06,1.78,1.78,0,0,0,1.52.6,15.32,15.32,0,0,0,1.68-.19l0.08,1.55A13.3,13.3,0,0,1,262,464.53Z"/><path class="cls-3" d="M264.6,451.44h2.07l4.05,10.7,3.61-10.7h2.07q-5.2,14.32-5.38,14.77a7.23,7.23,0,0,1-2,3,4.61,4.61,0,0,1-3,.94,7.94,7.94,0,0,1-1.18-.09l-0.12-1.66q0.66,0,1,0a3.46,3.46,0,0,0,2-.49A4,4,0,0,0,269,466.1q0.48-1.23.71-1.9Z"/><polyline class="cls-6" points="345.19 508.51 320.85 508.51 320.85 408.32 345.19 408.32"/><line class="cls-6" x1="296.51" y1="458.7" x2="320.85" y2="458.7"/></svg>